<svg id="visual" viewBox="0 0 960 540" width="960" height="540" xmlns="http://www.w3.org/2000/svg" xmlns:xlink="http://www.w3.org/1999/xlink" version="1.1"><rect x="0" y="0" width="960" height="540" fill="#001220"></rect><path d="M0 319L20 307.3C40 295.7 80 272.3 120 264.5C160 256.7 200 264.3 240 263.5C280 262.7 320 253.3 360 263.8C400 274.3 440 304.7 480 316.7C520 328.7 560 322.3 600 302.5C640 282.7 680 249.3 720 240C760 230.7 800 245.3 840 243.7C880 242 920 224 940 215L960 206L960 541L940 541C920 541 880 541 840 541C800 541 760 541 720 541C680 541 640 541 600 541C560 541 520 541 480 541C440 541 400 541 360 541C320 541 280 541 240 541C200 541 160 541 120 541C80 541 40 541 20 541L0 541Z" fill="#fa7268"></path><path d="M0 359L20 344.2C40 329.3 80 299.7 120 299.8C160 300 200 330 240 330C280 330 320 300 360 294.5C400 289 440 308 480 318.8C520 329.7 560 332.3 600 315.7C640 299 680 263 720 250.8C760 238.7 800 250.3 840 249.5C880 248.7 920 235.3 940 228.7L960 222L960 541L940 541C920 541 880 541 840 541C800 541 760 541 720 541C680 541 640 541 600 541C560 541 520 541 480 541C440 541 400 541 360 541C320 541 280 541 240 541C200 541 160 541 120 541C80 541 40 541 20 541L0 541Z" fill="#f66b68"></path><path d="M0 268L20 284C40 300 80 332 120 343.8C160 355.7 200 347.3 240 329.5C280 311.7 320 284.3 360 288C400 291.7 440 326.3 480 340.3C520 354.3 560 347.7 600 345.8C640 344 680 347 720 338.2C760 329.3 800 308.7 840 298.7C880 288.7 920 289.3 940 289.7L960 290L960 541L940 541C920 541 880 541 840 541C800 541 760 541 720 541C680 541 640 541 600 541C560 541 520 541 480 541C440 541 400 541 360 541C320 541 280 541 240 541C200 541 160 541 120 541C80 541 40 541 20 541L0 541Z" fill="#f26467"></path><path d="M0 314L20 311.5C40 309 80 304 120 300.2C160 296.3 200 293.7 240 293.5C280 293.3 320 295.7 360 301.8C400 308 440 318 480 318C520 318 560 308 600 312C640 316 680 334 720 335.8C760 337.7 800 323.3 840 330.7C880 338 920 367 940 381.5L960 396L960 541L940 541C920 541 880 541 840 541C800 541 760 541 720 541C680 541 640 541 600 541C560 541 520 541 480 541C440 541 400 541 360 541C320 541 280 541 240 541C200 541 160 541 120 541C80 541 40 541 20 541L0 541Z" fill="#ee5d67"></path><path d="M0 307L20 323C40 339 80 371 120 378.8C160 386.7 200 370.3 240 356C280 341.7 320 329.3 360 322C400 314.7 440 312.3 480 322C520 331.7 560 353.3 600 370.2C640 387 680 399 720 396.5C760 394 800 377 840 363C880 349 920 338 940 332.5L960 327L960 541L940 541C920 541 880 541 840 541C800 541 760 541 720 541C680 541 640 541 600 541C560 541 520 541 480 541C440 541 400 541 360 541C320 541 280 541 240 541C200 541 160 541 120 541C80 541 40 541 20 541L0 541Z" fill="#ea5667"></path><path d="M0 378L20 374.2C40 370.3 80 362.7 120 361.2C160 359.7 200 364.3 240 372.8C280 381.3 320 393.7 360 392C400 390.3 440 374.7 480 376.3C520 378 560 397 600 397.7C640 398.3 680 380.7 720 371.8C760 363 800 363 840 358.2C880 353.3 920 343.7 940 338.8L960 334L960 541L940 541C920 541 880 541 840 541C800 541 760 541 720 541C680 541 640 541 600 541C560 541 520 541 480 541C440 541 400 541 360 541C320 541 280 541 240 541C200 541 160 541 120 541C80 541 40 541 20 541L0 541Z" fill="#e54f67"></path><path d="M0 416L20 418.3C40 420.7 80 425.3 120 422.2C160 419 200 408 240 397.8C280 387.7 320 378.3 360 381.3C400 384.3 440 399.7 480 402.7C520 405.7 560 396.3 600 389C640 381.7 680 376.3 720 377.3C760 378.3 800 385.7 840 396C880 406.3 920 419.7 940 426.3L960 433L960 541L940 541C920 541 880 541 840 541C800 541 760 541 720 541C680 541 640 541 600 541C560 541 520 541 480 541C440 541 400 541 360 541C320 541 280 541 240 541C200 541 160 541 120 541C80 541 40 541 20 541L0 541Z" fill="#e14867"></path><path d="M0 461L20 456.5C40 452 80 443 120 431.5C160 420 200 406 240 401.8C280 397.7 320 403.3 360 410.5C400 417.7 440 426.3 480 426C520 425.7 560 416.3 600 407.5C640 398.7 680 390.3 720 393.3C760 396.3 800 410.7 840 420.8C880 431 920 437 940 440L960 443L960 541L940 541C920 541 880 541 840 541C800 541 760 541 720 541C680 541 640 541 600 541C560 541 520 541 480 541C440 541 400 541 360 541C320 541 280 541 240 541C200 541 160 541 120 541C80 541 40 541 20 541L0 541Z" fill="#dc4167"></path><path d="M0 436L20 438.2C40 440.3 80 444.7 120 441C160 437.3 200 425.7 240 428.3C280 431 320 448 360 452.8C400 457.7 440 450.3 480 448.2C520 446 560 449 600 449.2C640 449.3 680 446.7 720 444.2C760 441.7 800 439.3 840 442.3C880 445.3 920 453.7 940 457.8L960 462L960 541L940 541C920 541 880 541 840 541C800 541 760 541 720 541C680 541 640 541 600 541C560 541 520 541 480 541C440 541 400 541 360 541C320 541 280 541 240 541C200 541 160 541 120 541C80 541 40 541 20 541L0 541Z" fill="#d73a67"></path><path d="M0 479L20 472.7C40 466.3 80 453.7 120 449C160 444.3 200 447.7 240 451.5C280 455.3 320 459.7 360 458C400 456.3 440 448.7 480 452.7C520 456.7 560 472.3 600 473.5C640 474.7 680 461.3 720 457C760 452.7 800 457.3 840 458.3C880 459.3 920 456.7 940 455.3L960 454L960 541L940 541C920 541 880 541 840 541C800 541 760 541 720 541C680 541 640 541 600 541C560 541 520 541 480 541C440 541 400 541 360 541C320 541 280 541 240 541C200 541 160 541 120 541C80 541 40 541 20 541L0 541Z" fill="#d13367"></path><path d="M0 496L20 496C40 496 80 496 120 497.3C160 498.7 200 501.3 240 497.5C280 493.7 320 483.3 360 483.5C400 483.7 440 494.3 480 498C520 501.7 560 498.3 600 495.7C640 493 680 491 720 487.5C760 484 800 479 840 479.8C880 480.7 920 487.3 940 490.7L960 494L960 541L940 541C920 541 880 541 840 541C800 541 760 541 720 541C680 541 640 541 600 541C560 541 520 541 480 541C440 541 400 541 360 541C320 541 280 541 240 541C200 541 160 541 120 541C80 541 40 541 20 541L0 541Z" fill="#cc2b68"></path><path d="M0 496L20 501.5C40 507 80 518 120 523.3C160 528.7 200 528.3 240 523.7C280 519 320 510 360 504.8C400 499.7 440 498.3 480 499.2C520 500 560 503 600 504.2C640 505.3 680 504.7 720 507.5C760 510.3 800 516.7 840 519.3C880 522 920 521 940 520.5L960 520L960 541L940 541C920 541 880 541 840 541C800 541 760 541 720 541C680 541 640 541 600 541C560 541 520 541 480 541C440 541 400 541 360 541C320 541 280 541 240 541C200 541 160 541 120 541C80 541 40 541 20 541L0 541Z" fill="#c62368"></path></svg>